<svg width="53" height="41" viewBox="0 0 53 41" fill="none" xmlns="http://www.w3.org/2000/svg">
<g filter="url(#filter0_di_12_79)">
<mask id="path-1-outside-1_12_79" maskUnits="userSpaceOnUse" x="18" y="8" width="17" height="15" fill="black">
<rect fill="white" x="18" y="8" width="17" height="15"/>
<path d="M20.696 21L25.272 9.8H27.208L31.768 21H29.336L28.568 18.872H23.896L23.128 21H20.696ZM25.832 13.88L24.632 16.936H27.832L26.632 13.88C26.472 13.4533 26.3387 13.0267 26.232 12.6C26.1253 13.0587 25.992 13.4853 25.832 13.88Z"/>
</mask>
<path d="M20.696 21L25.272 9.8H27.208L31.768 21H29.336L28.568 18.872H23.896L23.128 21H20.696ZM25.832 13.88L24.632 16.936H27.832L26.632 13.88C26.472 13.4533 26.3387 13.0267 26.232 12.6C26.1253 13.0587 25.992 13.4853 25.832 13.88Z" fill="#FF5983"/>
<path d="M20.696 21L19.2149 20.3948L18.3139 22.6H20.696V21ZM25.272 9.8V8.2H24.1973L23.7909 9.19485L25.272 9.8ZM27.208 9.8L28.6899 9.19666L28.2841 8.2H27.208V9.8ZM31.768 21V22.6H34.147L33.2499 20.3967L31.768 21ZM29.336 21L27.831 21.5432L28.2124 22.6H29.336V21ZM28.568 18.872L30.073 18.3288L29.6916 17.272H28.568V18.872ZM23.896 18.872V17.272H22.7724L22.391 18.3288L23.896 18.872ZM23.128 21V22.6H24.2516L24.633 21.5432L23.128 21ZM25.832 13.88L24.3492 13.2789L24.3459 13.287L24.3427 13.2952L25.832 13.88ZM24.632 16.936L23.1427 16.3512L22.2848 18.536H24.632V16.936ZM27.832 16.936V18.536H30.1792L29.3213 16.3512L27.832 16.936ZM26.632 13.88L25.1339 14.4418L25.1382 14.4533L25.1427 14.4648L26.632 13.88ZM26.232 12.6L27.7842 12.2119L24.6736 12.2376L26.232 12.6ZM20.696 21L22.1771 21.6052L26.7531 10.4052L25.272 9.8L23.7909 9.19485L19.2149 20.3948L20.696 21ZM25.272 9.8V11.4H27.208V9.8V8.2H25.272V9.8ZM27.208 9.8L25.7261 10.4033L30.2861 21.6033L31.768 21L33.2499 20.3967L28.6899 9.19666L27.208 9.8ZM31.768 21V19.4H29.336V21V22.6H31.768V21ZM29.336 21L30.841 20.4568L30.073 18.3288L28.568 18.872L27.063 19.4152L27.831 21.5432L29.336 21ZM28.568 18.872V17.272H23.896V18.872V20.472H28.568V18.872ZM23.896 18.872L22.391 18.3288L21.623 20.4568L23.128 21L24.633 21.5432L25.401 19.4152L23.896 18.872ZM23.128 21V19.4H20.696V21V22.6H23.128V21ZM25.832 13.88L24.3427 13.2952L23.1427 16.3512L24.632 16.936L26.1213 17.5208L27.3213 14.4648L25.832 13.88ZM24.632 16.936V18.536H27.832V16.936V15.336H24.632V16.936ZM27.832 16.936L29.3213 16.3512L28.1213 13.2952L26.632 13.88L25.1427 14.4648L26.3427 17.5208L27.832 16.936ZM26.632 13.88L28.1301 13.3182C27.9907 12.9463 27.8757 12.5776 27.7842 12.2119L26.232 12.6L24.6798 12.9881C24.8017 13.4757 24.9533 13.9603 25.1339 14.4418L26.632 13.88ZM26.232 12.6L24.6736 12.2376C24.5839 12.6232 24.4747 12.9693 24.3492 13.2789L25.832 13.88L27.3148 14.4811C27.5093 14.0014 27.6668 13.4941 27.7904 12.9624L26.232 12.6Z" fill="#FF5983" mask="url(#path-1-outside-1_12_79)"/>
</g>
<defs>
<filter id="filter0_di_12_79" x="0.313904" y="-9.79999" width="51.8331" height="50.4" filterUnits="userSpaceOnUse" color-interpolation-filters="sRGB">
<feFlood flood-opacity="0" result="BackgroundImageFix"/>
<feColorMatrix in="SourceAlpha" type="matrix" values="0 0 0 0 0 0 0 0 0 0 0 0 0 0 0 0 0 0 127 0" result="hardAlpha"/>
<feOffset/>
<feGaussianBlur stdDeviation="9"/>
<feComposite in2="hardAlpha" operator="out"/>
<feColorMatrix type="matrix" values="0 0 0 0 1 0 0 0 0 0.34902 0 0 0 0 0.513726 0 0 0 1 0"/>
<feBlend mode="normal" in2="BackgroundImageFix" result="effect1_dropShadow_12_79"/>
<feBlend mode="normal" in="SourceGraphic" in2="effect1_dropShadow_12_79" result="shape"/>
<feColorMatrix in="SourceAlpha" type="matrix" values="0 0 0 0 0 0 0 0 0 0 0 0 0 0 0 0 0 0 127 0" result="hardAlpha"/>
<feOffset/>
<feGaussianBlur stdDeviation="18.5"/>
<feComposite in2="hardAlpha" operator="arithmetic" k2="-1" k3="1"/>
<feColorMatrix type="matrix" values="0 0 0 0 1 0 0 0 0 0.34902 0 0 0 0 0.513726 0 0 0 1 0"/>
<feBlend mode="normal" in2="shape" result="effect2_innerShadow_12_79"/>
</filter>
</defs>
</svg>
